# xmcd
#
# Track frame offsets:
# 150
# 16561
# 33558
# 49781
# 70784
# 90806
# 106310
# 128178
# 144724
# 165853
# 183098
#
# Disc length: 2650 seconds
#
#
# Revision: 0
# Processed by: cddbd v1.5.2PL0 Copyright (c) Steve Scherf et al.
# Submitted via: Nero 7, 11, 10, 0 
#
DISCID=7c0a580b
DTITLE=Spencer Thomas - Voodoo Dream
DYEAR=2007
DGENRE=Blues
TTITLE0=Boogie Woogie Mambo
TTITLE1=Missin' Persons
TTITLE2=Don't Give Her Tequila
TTITLE3=Bug-O-Love
TTITLE4=Trouble
TTITLE5=Anaconda
TTITLE6=Voodoo Dream
TTITLE7=Whoop Te-Nah-Ne
TTITLE8=She Took Me To The Cleaners
TTITLE9=Tears In the Wishin' Well
TTITLE10=I Love My Guitar
EXTD=
EXTT0=Boogie Woogie Mambo
EXTT1=Missin' Persons
EXTT2=Don't Give Her Tequila
EXTT3=Bug-O-Love
EXTT4=Trouble
EXTT5=Anaconda
EXTT6=Voodoo Dream
EXTT7=Whoop Te-Nah-Ne
EXTT8=She Took Me To The Cleaners
EXTT9=Tears In the Wishin' Well
EXTT10=I Love My Guitar
PLAYORDER=
